<svg xmlns="http://www.w3.org/2000/svg" width="100.14" height="65.367" viewBox="0 0 100.14 65.367">
  <path id="Education-Icon-SVG-0m4fd_" data-name="Education-Icon-SVG-0m4fd "
    d="M47.582,64.336c-8.742-.1-17.833-3.605-31.706-7.322v-28.9L43.5,37.789a12.39,12.39,0,0,0,8.171,0l27.621-9.672v28.9c-13.529,3.625-22.2,7.325-31.322,7.325ZM87.925,42.862l3.083-6.177a3.732,3.732,0,0,1-.628-6.378V18.317l-42.8,14.97L0,16.646,47.582,0,95.164,16.646l-.142.045V30.308a3.715,3.715,0,0,1-.544,6.32l3.315,6.235Z"
    transform="translate(1.514 0.53)" stroke="rgba(0,0,0,0)" stroke-miterlimit="10" stroke-width="1" />
</svg>