<?xml version="1.0" encoding="utf-8"?>
<svg width="800px" height="800px" viewBox="0 0 24 24" fill="none" xmlns="http://www.w3.org/2000/svg">
    <path fill-rule="evenodd" clip-rule="evenodd"
        d="M4.51848 5.55639L6.82251 7.86611C5.6051 8.85592 4.65508 10.1872 4.09704 11.7195L4 11.9859L4.10384 12.2498C4.69454 13.7507 5.68174 15.1297 6.90031 16.1241C8.31938 17.2822 10.1044 17.9758 12.0449 17.9758C13.4414 17.9758 14.7584 17.6164 15.9164 16.9824L18.4277 19.5L19.4815 18.4436L17.1775 16.1339L16.1167 15.0705L9.19255 8.12922L8.08361 7.01755L5.57226 4.5L4.51848 5.55639ZM7.88326 8.92948C6.89207 9.69943 6.09644 10.7454 5.59957 11.9656C6.10925 13.1365 6.90095 14.1982 7.84116 14.9655C9.01025 15.9196 10.467 16.4819 12.0449 16.4819C13.0265 16.4819 13.9605 16.2644 14.8075 15.8708L13.875 14.9361C13.3341 15.2838 12.6902 15.4859 12 15.4859C10.0795 15.4859 8.52268 13.9252 8.52268 12C8.52268 11.3081 8.72429 10.6626 9.07117 10.1203L7.88326 8.92948ZM10.1701 11.2219C10.0688 11.4609 10.013 11.7237 10.013 12C10.013 13.1001 10.9026 13.9919 12 13.9919C12.2756 13.9919 12.5378 13.936 12.7762 13.8345L10.1701 11.2219Z"
        fill="#1F2328" />
    <path
        d="M11.9551 6.02417C11.2163 6.02417 10.4988 6.1248 9.81472 6.31407C9.69604 6.3469 9.57842 6.38239 9.4619 6.42047L10.6812 7.64274C11.0937 7.56094 11.5195 7.51813 11.9551 7.51813C13.533 7.51813 14.9898 8.08041 16.1588 9.03448C17.099 9.80176 17.8907 10.8635 18.4004 12.0344C18.0874 12.803 17.6557 13.503 17.1308 14.1083L18.1868 15.1669C18.9236 14.3372 19.5102 13.359 19.903 12.2805L20 12.0141L19.8962 11.7502C19.3055 10.2493 18.3183 8.87033 17.0997 7.87589C15.6806 6.71782 13.8956 6.02417 11.9551 6.02417Z"
        fill="#1F2328" />
</svg>