<svg version="1.1" id="Layer_1" xmlns="http://www.w3.org/2000/svg" xmlns:xlink="http://www.w3.org/1999/xlink" x="0px"
	y="0px" width="100%" viewBox="0 0 1151 639" enable-background="new 0 0 1151 639" xml:space="preserve">
	<path fill="transparent" opacity="1.000000" stroke="none" d="
M1152.000000,8.000008 
	C1152.000000,218.637222 1152.000000,429.274445 1152.000000,639.911621 
	C1151.862793,639.941101 1151.725586,639.996277 1151.588379,639.996277 
	C768.141968,640.000000 384.695526,640.000000 1.124554,640.000000 
	C1.124554,427.112854 1.124554,214.225616 1.124554,1.169193 
	C384.666595,1.169193 768.333313,1.169193 1152.000000,1.169193 
	C1152.000000,2.000652 1152.000000,3.000570 1151.533203,4.546540 
	C1099.731934,5.097888 1048.397217,5.150231 997.062927,5.016593 
	C993.080322,5.006225 990.301392,6.070697 987.478943,8.901627 
	C936.768677,59.764057 885.955505,110.523895 835.157410,161.298828 
	C834.295654,162.160217 833.348267,162.936081 831.646729,164.465714 
	C831.646729,110.855064 831.646729,58.306889 831.646729,5.565489 
	C830.368225,5.460773 829.564514,5.337354 828.760864,5.337283 
	C726.439697,5.328284 624.118530,5.312694 521.797485,5.442474 
	C519.791260,5.445018 517.319214,6.687571 515.851135,8.144403 
	C484.624512,39.132721 453.491272,70.215279 422.378784,101.318466 
	C337.528412,186.143524 252.696686,270.987213 167.851486,355.817474 
	C166.540344,357.128387 165.151794,358.361847 162.843857,360.528442 
	C162.843857,248.400055 162.843857,137.737000 162.843857,26.466187 
	C161.782898,27.375338 161.272110,27.757248 160.825684,28.203537 
	C124.292236,64.726570 87.733612,101.224640 51.336933,137.883514 
	C49.755844,139.475983 48.981476,142.549011 48.979889,144.933121 
	C48.872189,306.913818 48.882385,468.894562 48.882492,630.875305 
	C48.882492,632.463379 48.882496,634.051453 48.882496,635.639587 
	C49.475471,636.059875 50.068447,636.480164 50.661423,636.900452 
	C51.241524,635.720581 51.558964,634.278015 52.438980,633.398071 
	C145.407562,540.433777 238.431412,447.524750 331.422791,354.583252 
	C408.624664,277.422821 485.799561,200.235306 562.933228,123.006699 
	C565.208374,120.728752 567.451904,119.672058 570.747314,119.679497 
	C617.908020,119.786079 665.069092,119.753319 712.230042,119.754089 
	C713.826416,119.754120 715.422791,119.754097 717.455750,119.754097 
	C717.455750,226.881622 717.455750,333.411682 717.455750,440.859650 
	C719.325439,439.128143 720.538513,438.077393 721.670654,436.945679 
	C757.261414,401.370483 792.844360,365.787415 828.428345,330.205353 
	C935.064331,223.574936 1041.698364,116.942612 1148.364014,10.341912 
	C1149.360840,9.345863 1150.778687,8.771347 1152.000000,8.000008 
z" />
	<path fill="#FEFEFE" opacity="1.000000" stroke="none" d="
M1152.000000,7.625008 
	C1150.778687,8.771347 1149.360840,9.345863 1148.364014,10.341912 
	C1041.698364,116.942612 935.064331,223.574936 828.428345,330.205353 
	C792.844360,365.787415 757.261414,401.370483 721.670654,436.945679 
	C720.538513,438.077393 719.325439,439.128143 717.455750,440.859650 
	C717.455750,333.411682 717.455750,226.881622 717.455750,119.754097 
	C715.422791,119.754097 713.826416,119.754120 712.230042,119.754089 
	C665.069092,119.753319 617.908020,119.786079 570.747314,119.679497 
	C567.451904,119.672058 565.208374,120.728752 562.933228,123.006699 
	C485.799561,200.235306 408.624664,277.422821 331.422791,354.583252 
	C238.431412,447.524750 145.407562,540.433777 52.438980,633.398071 
	C51.558964,634.278015 51.241524,635.720581 50.661423,636.900452 
	C50.068447,636.480164 49.475471,636.059875 48.882496,635.639587 
	C48.882496,634.051453 48.882492,632.463379 48.882492,630.875305 
	C48.882385,468.894562 48.872189,306.913818 48.979889,144.933121 
	C48.981476,142.549011 49.755844,139.475983 51.336933,137.883514 
	C87.733612,101.224640 124.292236,64.726570 160.825684,28.203537 
	C161.272110,27.757248 161.782898,27.375338 162.843857,26.466187 
	C162.843857,137.737000 162.843857,248.400055 162.843857,360.528442 
	C165.151794,358.361847 166.540344,357.128387 167.851486,355.817474 
	C252.696686,270.987213 337.528412,186.143524 422.378784,101.318466 
	C453.491272,70.215279 484.624512,39.132721 515.851135,8.144403 
	C517.319214,6.687571 519.791260,5.445018 521.797485,5.442474 
	C624.118530,5.312694 726.439697,5.328284 828.760864,5.337283 
	C829.564514,5.337354 830.368225,5.460773 831.646729,5.565489 
	C831.646729,58.306889 831.646729,110.855064 831.646729,164.465714 
	C833.348267,162.936081 834.295654,162.160217 835.157410,161.298828 
	C885.955505,110.523895 936.768677,59.764057 987.478943,8.901627 
	C990.301392,6.070697 993.080322,5.006225 997.062927,5.016593 
	C1048.397217,5.150231 1099.731934,5.097888 1151.533203,5.046296 
	C1152.000000,5.750000 1152.000000,6.500000 1152.000000,7.625008 
z" />
</svg>