<svg xmlns="http://www.w3.org/2000/svg" xmlns:xlink="http://www.w3.org/1999/xlink" viewBox="0 0 500 500" width="500"
    height="500" preserveAspectRatio="xMidYMid meet"
    style="width: 100%; height: 100%; transform: translate3d(0px, 0px, 0px); content-visibility: visible;">
    <defs>
        <clipPath id="__lottie_element_10">
            <rect width="500" height="500" x="0" y="0" />
        </clipPath>
        <clipPath id="__lottie_element_12">
            <path d="M0,0 L500,0 L500,500 L0,500z" />
        </clipPath>
    </defs>
    <g clip-path="url(#__lottie_element_10)">
        <g clip-path="url(#__lottie_element_12)" transform="matrix(1,0,0,1,0,0)" opacity="1" style="display: block;">
            <g class="primary design"
                transform="matrix(20.829999923706055,0,0,20.829999923706055,-4957.498046875,-4957.49853515625)"
                opacity="1" style="display: none;">
                <g opacity="1" transform="matrix(1,0,0,1,250,249.9949951171875)">
                    <path class="primary" fill="white" fill-opacity="1"
                        d=" M7.949999809265137,-2.994999885559082 C7.940000057220459,-3.015000104904175 7.940000057220459,-3.0450000762939453 7.929999828338623,-3.065000057220459 C7.889999866485596,-3.1449999809265137 7.849999904632568,-3.2149999141693115 7.78000020980835,-3.2850000858306885 C7.78000020980835,-3.2850000858306885 1.2799999713897705,-9.78499984741211 1.2799999713897705,-9.78499984741211 C1.2200000286102295,-9.845000267028809 1.1399999856948853,-9.895000457763672 1.059999942779541,-9.9350004196167 C1.0399999618530273,-9.944999694824219 1.0099999904632568,-9.954999923706055 0.9900000095367432,-9.96500015258789 C0.9300000071525574,-9.984999656677246 0.8600000143051147,-10.005000114440918 0.7900000214576721,-10.005000114440918 C0.7799999713897705,-9.984999656677246 0.7699999809265137,-9.994999885559082 0.75,-9.994999885559082 C0.75,-9.994999885559082 -6.25,-9.994999885559082 -6.25,-9.994999885559082 C-7.210000038146973,-9.994999885559082 -8,-9.204999923706055 -8,-8.244999885559082 C-8,-8.244999885559082 -8,8.255000114440918 -8,8.255000114440918 C-8,9.21500015258789 -7.210000038146973,10.005000114440918 -6.25,10.005000114440918 C-6.25,10.005000114440918 6.25,10.005000114440918 6.25,10.005000114440918 C7.210000038146973,10.005000114440918 8,9.21500015258789 8,8.255000114440918 C8,8.255000114440918 8,-2.744999885559082 8,-2.744999885559082 C8,-2.765000104904175 7.989999771118164,-2.7750000953674316 7.989999771118164,-2.7950000762939453 C7.989999771118164,-2.8550000190734863 7.96999979019165,-2.924999952316284 7.949999809265137,-2.994999885559082z M1.5,-7.434999942779541 C1.5,-7.434999942779541 5.440000057220459,-3.494999885559082 5.440000057220459,-3.494999885559082 C5.440000057220459,-3.494999885559082 1.5,-3.494999885559082 1.5,-3.494999885559082 C1.5,-3.494999885559082 1.5,-7.434999942779541 1.5,-7.434999942779541z M6.25,8.505000114440918 C6.25,8.505000114440918 -6.25,8.505000114440918 -6.25,8.505000114440918 C-6.389999866485596,8.505000114440918 -6.5,8.395000457763672 -6.5,8.255000114440918 C-6.5,8.255000114440918 -6.5,-8.244999885559082 -6.5,-8.244999885559082 C-6.5,-8.385000228881836 -6.389999866485596,-8.494999885559082 -6.25,-8.494999885559082 C-6.25,-8.494999885559082 0,-8.494999885559082 0,-8.494999885559082 C0,-8.494999885559082 0,-2.744999885559082 0,-2.744999885559082 C0,-2.3350000381469727 0.3400000035762787,-1.9950000047683716 0.75,-1.9950000047683716 C0.75,-1.9950000047683716 6.5,-1.9950000047683716 6.5,-1.9950000047683716 C6.5,-1.9950000047683716 6.5,8.255000114440918 6.5,8.255000114440918 C6.5,8.395000457763672 6.389999866485596,8.505000114440918 6.25,8.505000114440918z" />
                </g>
                <g opacity="1" transform="matrix(1,0,0,1,250,251.75)">
                    <path class="primary" fill="white" fill-opacity="1"
                        d=" M3.25,-0.75 C3.25,-0.75 -3.25,-0.75 -3.25,-0.75 C-3.6600000858306885,-0.75 -4,-0.4099999964237213 -4,0 C-4,0.4099999964237213 -3.6600000858306885,0.75 -3.25,0.75 C-3.25,0.75 3.25,0.75 3.25,0.75 C3.6600000858306885,0.75 4,0.4099999964237213 4,0 C4,-0.4099999964237213 3.6600000858306885,-0.75 3.25,-0.75z" />
                </g>
                <g opacity="1" transform="matrix(1,0,0,1,250,254.75)">
                    <path class="primary" fill="white" fill-opacity="1"
                        d=" M3.25,-0.75 C3.25,-0.75 -3.25,-0.75 -3.25,-0.75 C-3.6600000858306885,-0.75 -4,-0.4099999964237213 -4,0 C-4,0.4099999964237213 -3.6600000858306885,0.75 -3.25,0.75 C-3.25,0.75 3.25,0.75 3.25,0.75 C3.6600000858306885,0.75 4,0.4099999964237213 4,0 C4,-0.4099999964237213 3.6600000858306885,-0.75 3.25,-0.75z" />
                </g>
            </g>
            <g class="primary design"
                transform="matrix(20.829999923706055,0,0,20.829999923706055,-4957.498046875,-4957.49853515625)"
                opacity="1" style="display: block;">
                <g opacity="1" transform="matrix(1,0,0,1,250,249.9949951171875)">
                    <path class="primary" fill="white" fill-opacity="1"
                        d=" M7.949999809265137,-2.994999885559082 C7.940000057220459,-3.015000104904175 7.940000057220459,-3.0450000762939453 7.929999828338623,-3.065000057220459 C7.889999866485596,-3.1449999809265137 7.849999904632568,-3.2149999141693115 7.78000020980835,-3.2850000858306885 C7.78000020980835,-3.2850000858306885 1.2799999713897705,-9.78499984741211 1.2799999713897705,-9.78499984741211 C1.2200000286102295,-9.845000267028809 1.1399999856948853,-9.895000457763672 1.059999942779541,-9.9350004196167 C1.0399999618530273,-9.944999694824219 1.0099999904632568,-9.954999923706055 0.9900000095367432,-9.96500015258789 C0.9300000071525574,-9.984999656677246 0.8600000143051147,-10.005000114440918 0.7900000214576721,-10.005000114440918 C0.7799999713897705,-9.984999656677246 0.7699999809265137,-9.994999885559082 0.75,-9.994999885559082 C0.75,-9.994999885559082 -6.25,-9.994999885559082 -6.25,-9.994999885559082 C-7.210000038146973,-9.994999885559082 -8,-9.204999923706055 -8,-8.244999885559082 C-8,-8.244999885559082 -8,8.255000114440918 -8,8.255000114440918 C-8,9.21500015258789 -7.210000038146973,10.005000114440918 -6.25,10.005000114440918 C-6.25,10.005000114440918 6.25,10.005000114440918 6.25,10.005000114440918 C7.210000038146973,10.005000114440918 8,9.21500015258789 8,8.255000114440918 C8,8.255000114440918 8,-2.744999885559082 8,-2.744999885559082 C8,-2.765000104904175 7.989999771118164,-2.7750000953674316 7.989999771118164,-2.7950000762939453 C7.989999771118164,-2.8550000190734863 7.96999979019165,-2.924999952316284 7.949999809265137,-2.994999885559082z M1.5,-7.434999942779541 C1.5,-7.434999942779541 5.440000057220459,-3.494999885559082 5.440000057220459,-3.494999885559082 C5.440000057220459,-3.494999885559082 1.5,-3.494999885559082 1.5,-3.494999885559082 C1.5,-3.494999885559082 1.5,-7.434999942779541 1.5,-7.434999942779541z M6.25,8.505000114440918 C6.25,8.505000114440918 -6.25,8.505000114440918 -6.25,8.505000114440918 C-6.389999866485596,8.505000114440918 -6.5,8.395000457763672 -6.5,8.255000114440918 C-6.5,8.255000114440918 -6.5,-8.244999885559082 -6.5,-8.244999885559082 C-6.5,-8.385000228881836 -6.389999866485596,-8.494999885559082 -6.25,-8.494999885559082 C-6.25,-8.494999885559082 0,-8.494999885559082 0,-8.494999885559082 C0,-8.494999885559082 0,-2.744999885559082 0,-2.744999885559082 C0,-2.3350000381469727 0.3400000035762787,-1.9950000047683716 0.75,-1.9950000047683716 C0.75,-1.9950000047683716 6.5,-1.9950000047683716 6.5,-1.9950000047683716 C6.5,-1.9950000047683716 6.5,8.255000114440918 6.5,8.255000114440918 C6.5,8.395000457763672 6.389999866485596,8.505000114440918 6.25,8.505000114440918z" />
                </g>
                <g opacity="1" transform="matrix(1,0,0,1,250,251.75)">
                    <path class="primary" fill="white" fill-opacity="1"
                        d=" M3.25,-0.75 C3.25,-0.75 -3.25,-0.75 -3.25,-0.75 C-3.6600000858306885,-0.75 -4,-0.4099999964237213 -4,0 C-4,0.4099999964237213 -3.6600000858306885,0.75 -3.25,0.75 C-3.25,0.75 3.25,0.75 3.25,0.75 C3.6600000858306885,0.75 4,0.4099999964237213 4,0 C4,-0.4099999964237213 3.6600000858306885,-0.75 3.25,-0.75z" />
                </g>
                <g opacity="1" transform="matrix(1,0,0,1,250,254.75)">
                    <path class="primary" fill="white" fill-opacity="1"
                        d=" M3.25,-0.75 C3.25,-0.75 -3.25,-0.75 -3.25,-0.75 C-3.6600000858306885,-0.75 -4,-0.4099999964237213 -4,0 C-4,0.4099999964237213 -3.6600000858306885,0.75 -3.25,0.75 C-3.25,0.75 3.25,0.75 3.25,0.75 C3.6600000858306885,0.75 4,0.4099999964237213 4,0 C4,-0.4099999964237213 3.6600000858306885,-0.75 3.25,-0.75z" />
                </g>
            </g>
            <g class="primary design"
                transform="matrix(1,-0.00008096419333014637,0.00008096419333014637,1,249.98497009277344,250.0030059814453)"
                opacity="1" style="display: none;">
                <g opacity="1" transform="matrix(1,0,0,1,0,0)">
                    <path stroke-linecap="round" stroke-linejoin="round" fill-opacity="0" class="primary" stroke="white"
                        stroke-opacity="1" stroke-width="31.3"
                        d=" M151.04200744628906,-57.29199981689453 C151.04200744628906,-57.29199981689453 151.04200744628906,171.87600708007812 151.04200744628906,171.87600708007812 C151.04200744628906,183.3820037841797 141.71499633789062,192.70899963378906 130.20899963378906,192.70899963378906 C130.20899963378906,192.70899963378906 -130.20899963378906,192.70899963378906 -130.20899963378906,192.70899963378906 C-141.71499633789062,192.70899963378906 -151.04200744628906,183.3820037841797 -151.04200744628906,171.87600708007812 C-151.04200744628906,171.87600708007812 -151.04200744628906,-171.87600708007812 -151.04200744628906,-171.87600708007812 C-151.04200744628906,-183.3820037841797 -141.71499633789062,-192.70899963378906 -130.20899963378906,-192.70899963378906 C-130.20899963378906,-192.70899963378906 15.625,-192.70899963378906 15.625,-192.70899963378906" />
                </g>
            </g>
            <g class="primary design"
                transform="matrix(1,-0.00008096419333014637,0.00008096419333014637,1,333.30584716796875,124.9882583618164)"
                opacity="1" style="display: none;">
                <g opacity="1" transform="matrix(1,0,0,1,0,0)">
                    <path stroke-linecap="round" stroke-linejoin="round" fill-opacity="0" class="primary" stroke="white"
                        stroke-opacity="1" stroke-width="31.3"
                        d=" M-67.70500183105469,67.70500183105469 C-67.70500183105469,67.70500183105469 67.70500183105469,67.70500183105469 67.70500183105469,67.70500183105469 C67.70500183105469,67.70500183105469 -67.70500183105469,-67.70500183105469 -67.70500183105469,-67.70500183105469 C-67.70500183105469,-67.70500183105469 -67.70500183105469,67.70500183105469 -67.70500183105469,67.70500183105469z" />
                </g>
            </g>
            <g class="primary design"
                transform="matrix(1,-0.00008096419333014637,0.00008096419333014637,1,249.9869842529297,348.96002197265625)"
                opacity="1" style="display: none;">
                <g opacity="1" transform="matrix(1,0,0,1,-0.5,0)">
                    <path stroke-linecap="round" stroke-linejoin="round" fill-opacity="0" class="primary" stroke="white"
                        stroke-opacity="1" stroke-width="32"
                        d=" M-66.24400329589844,-0.28700000047683716 C-24.719999313354492,-0.28700000047683716 25.52400016784668,-0.28700000047683716 67.25499725341797,-0.28700000047683716" />
                </g>
                <g opacity="1" transform="matrix(1,0,0,1,-0.367000013589859,-61.9900016784668)">
                    <path stroke-linecap="round" stroke-linejoin="round" fill-opacity="0" class="primary" stroke="white"
                        stroke-opacity="1" stroke-width="32"
                        d=" M-66.24400329589844,-0.28700000047683716 C-24.719999313354492,-0.28700000047683716 25.52400016784668,-0.28700000047683716 67.25499725341797,-0.28700000047683716" />
                </g>
            </g>
        </g>
    </g>
</svg>