<svg xmlns="http://www.w3.org/2000/svg" xmlns:xlink="http://www.w3.org/1999/xlink" viewBox="0 0 500 500" width="500"
    height="500" preserveAspectRatio="xMidYMid meet"
    style="width: 100%; height: 100%; transform: translate3d(0px, 0px, 0px); content-visibility: visible;">
    <defs>
        <clipPath id="__lottie_element_59">
            <rect width="500" height="500" x="0" y="0" />
        </clipPath>
        <clipPath id="__lottie_element_61">
            <path d="M0,0 L500,0 L500,500 L0,500z" />
        </clipPath>
        <clipPath id="__lottie_element_124">
            <path d="M0,0 L500,0 L500,500 L0,500z" />
        </clipPath>
        <clipPath id="__lottie_element_128">
            <path d="M0,0 L500,0 L500,500 L0,500z" />
        </clipPath>
        <g id="__lottie_element_131">
            <g class="primary design" transform="matrix(1,0,0,1,644,250)" opacity="1" style="display: none;">
                <g opacity="1" transform="matrix(1,0,0,1,0,0)">
                    <path class="primary" fill="white" fill-opacity="1"
                        d=" M250,-250 C250,-250 250,250 250,250 C250,250 -250,250 -250,250 C-250,250 -250,-250 -250,-250 C-250,-250 250,-250 250,-250z" />
                    <path stroke-linecap="butt" stroke-linejoin="miter" fill-opacity="0" stroke-miterlimit="4"
                        class="primary" stroke="white" stroke-opacity="1" stroke-width="0"
                        d=" M250,-250 C250,-250 250,250 250,250 C250,250 -250,250 -250,250 C-250,250 -250,-250 -250,-250 C-250,-250 250,-250 250,-250z" />
                </g>
            </g>
        </g>
        <filter id="__lottie_element_134" filterUnits="objectBoundingBox" x="0%" y="0%" width="100%" height="100%">
            <feComponentTransfer in="SourceGraphic">
                <feFuncA type="table" tableValues="1.0 0.0" />
            </feComponentTransfer>
        </filter>
        <mask id="__lottie_element_131_2" mask-type="alpha">
            <g filter="url(#__lottie_element_134)">
                <rect width="500" height="500" x="0" y="0" fill="#ffffff" opacity="0" />
                <use xmlns:ns1="http://www.w3.org/1999/xlink" ns1:href="#__lottie_element_131" />
            </g>
        </mask>
        <clipPath id="__lottie_element_184">
            <path d="M0,0 L500,0 L500,500 L0,500z" />
        </clipPath>
        <clipPath id="__lottie_element_188">
            <path d="M0,0 L500,0 L500,500 L0,500z" />
        </clipPath>
        <g id="__lottie_element_191">
            <g class="primary design" transform="matrix(1,0,0,1,644,250)" opacity="1" style="display: none;">
                <g opacity="1" transform="matrix(1,0,0,1,0,0)">
                    <path class="primary" fill="white" fill-opacity="1"
                        d=" M250,-250 C250,-250 250,250 250,250 C250,250 -250,250 -250,250 C-250,250 -250,-250 -250,-250 C-250,-250 250,-250 250,-250z" />
                    <path stroke-linecap="butt" stroke-linejoin="miter" fill-opacity="0" stroke-miterlimit="4"
                        class="primary" stroke="white" stroke-opacity="1" stroke-width="0"
                        d=" M250,-250 C250,-250 250,250 250,250 C250,250 -250,250 -250,250 C-250,250 -250,-250 -250,-250 C-250,-250 250,-250 250,-250z" />
                </g>
            </g>
        </g>
        <filter id="__lottie_element_194" filterUnits="objectBoundingBox" x="0%" y="0%" width="100%" height="100%">
            <feComponentTransfer in="SourceGraphic">
                <feFuncA type="table" tableValues="1.0 0.0" />
            </feComponentTransfer>
        </filter>
        <mask id="__lottie_element_191_2" mask-type="alpha">
            <g filter="url(#__lottie_element_194)">
                <rect width="500" height="500" x="0" y="0" fill="#ffffff" opacity="0" />
                <use xmlns:ns2="http://www.w3.org/1999/xlink" ns2:href="#__lottie_element_191" />
            </g>
        </mask>
    </defs>
    <g clip-path="url(#__lottie_element_59)">
        <g clip-path="url(#__lottie_element_61)" transform="matrix(1,0,0,1,0,0)" opacity="1" style="display: block;">
            <g class="primary design" transform="matrix(1,0,0,1,0,0)" opacity="1" style="display: none;">
                <g opacity="1" transform="matrix(1,0,0,1,291.7130126953125,250)">
                    <path class="primary" fill="white" fill-opacity="1"
                        d=" M84.375,208.33299255371094 C84.375,208.33299255371094 41.66699981689453,208.33299255371094 41.66699981689453,208.33299255371094 C30.208999633789062,208.33299255371094 20.83300018310547,198.95799255371094 20.83300018310547,187.5 C20.83300018310547,176.04200744628906 30.208999633789062,166.66700744628906 41.66699981689453,166.66700744628906 C41.66699981689453,166.66700744628906 84.375,166.66700744628906 84.375,166.66700744628906 C84.375,166.66700744628906 83.33300018310547,-167.29200744628906 83.33300018310547,-167.29200744628906 C83.33300018310547,-167.29200744628906 -84.375,-166.66700744628906 -84.375,-166.66700744628906 C-84.375,-166.66700744628906 -83.33300018310547,-125 -83.33300018310547,-125 C-83.33300018310547,-113.54199981689453 -92.70899963378906,-104.16699981689453 -104.16699981689453,-104.16699981689453 C-115.625,-104.16699981689453 -125,-113.54199981689453 -125,-125 C-125,-125 -125,-167.29200744628906 -125,-167.29200744628906 C-125,-189.79200744628906 -106.66699981689453,-208.33299255371094 -84.375,-208.33299255371094 C-84.375,-208.33299255371094 84.375,-208.33299255371094 84.375,-208.33299255371094 C106.66699981689453,-208.33299255371094 125,-189.79200744628906 125,-167.29200744628906 C125,-167.29200744628906 125,167.08299255371094 125,167.08299255371094 C125,190 106.66699981689453,208.33299255371094 84.375,208.33299255371094z" />
                </g>
            </g>
            <g clip-path="url(#__lottie_element_184)" transform="matrix(1,0,0,1,0,0)" opacity="1"
                style="display: none;">
                <g class="primary design"
                    transform="matrix(0.9999998211860657,-0.000580191204790026,0.000580191204790026,0.9999998211860657,-0.129791259765625,0.1494140625)"
                    opacity="1" style="display: block;">
                    <g opacity="1" transform="matrix(1,0,0,1,299.4830017089844,148.27499389648438)">
                        <g opacity="1" transform="matrix(1,0,0,1,0,0)">
                            <path class="primary" fill="white" fill-opacity="1"
                                d=" M34.84299850463867,3.819000005722046 C34.84299850463867,3.819000005722046 19.827999114990234,29.719999313354492 19.827999114990234,29.719999313354492 C17.011999130249023,34.5989990234375 11.944000244140625,37.22700119018555 6.689000129699707,37.22700119018555 C4.249000072479248,37.22700119018555 1.621000051498413,36.665000915527344 -0.8190000057220459,35.16299819946289 C-0.8190000057220459,35.16299819946289 -13.770000457763672,27.655000686645508 -13.770000457763672,27.655000686645508 C-28.22100067138672,19.39699935913086 -33.10100173950195,1.003000020980835 -24.843000411987305,-13.26200008392334 C-24.843000411987305,-13.26200008392334 -17.336000442504883,-26.211999893188477 -17.336000442504883,-26.211999893188477 C-11.704000473022461,-35.97100067138672 -1.5700000524520874,-41.22700119018555 8.753000259399414,-41.22700119018555 C13.821000099182129,-41.22700119018555 19.076000213623047,-40.10100173950195 23.76799964904785,-37.28499984741211 C38.220001220703125,-29.027000427246094 43.10100173950195,-10.633000373840332 34.84299850463867,3.819000005722046z" />
                        </g>
                    </g>
                </g>
                <g class="primary design"
                    transform="matrix(-0.10513840615749359,-0.9944576025009155,0.9944576025009155,-0.10513840615749359,342.78265380859375,256.354736328125)"
                    opacity="1" style="display: block;">
                    <g opacity="1" transform="matrix(1,0,0,1,0,0)">
                        <path stroke-linecap="round" stroke-linejoin="round" fill-opacity="0" class="primary"
                            stroke="white" stroke-opacity="1" stroke-width="42"
                            d=" M20.259794235229492,-51.226165771484375 C20.259794235229492,-51.226165771484375 -50.21128463745117,-57.661197662353516 -50.21128463745117,-57.661197662353516 C-50.21128463745117,-57.661197662353516 -54.71293640136719,-15.644001960754395 -54.71293640136719,-15.644001960754395" />
                    </g>
                </g>
                <g class="primary design"
                    transform="matrix(-0.017529653385281563,0.999846339225769,-0.999846339225769,-0.017529653385281563,224.58248901367188,146.063232421875)"
                    opacity="1" style="display: block;">
                    <g opacity="1" transform="matrix(1,0,0,1,0,0)">
                        <path stroke-linecap="round" stroke-linejoin="round" fill-opacity="0" class="primary"
                            stroke="white" stroke-opacity="1" stroke-width="42"
                            d=" M105.95513153076172,97.8914794921875 C105.95513153076172,97.8914794921875 62.77512741088867,56.18669891357422 62.77512741088867,56.18669891357422 C62.77512741088867,56.18669891357422 61.76045608520508,-17.930906295776367 61.76045608520508,-17.930906295776367" />
                    </g>
                </g>
                <g class="primary design" style="display: none;">
                    <g>
                        <path class="primary" />
                    </g>
                </g>
                <g class="primary design"
                    transform="matrix(1,-0.00014247093349695206,0.00014247093349695206,1,174.01559448242188,327.721435546875)"
                    opacity="1" style="display: block;">
                    <g opacity="1" transform="matrix(1,0,0,1,0,0)">
                        <path class="primary" fill="white" fill-opacity="1"
                            d=" M112.96700286865234,-98.552001953125 C112.96700286865234,-98.552001953125 67.66100311279297,-20.405000686645508 67.66100311279297,-20.405000686645508 C67.66100311279297,-20.405000686645508 62.23500061035156,-11.04699993133545 62.23500061035156,-11.04699993133545 C62.23500061035156,-11.04699993133545 45.98500061035156,2.0329999923706055 19.110000610351562,-10.84000015258789 C-6.455999851226807,-23.086000442504883 -4.73199987411499,-41.9370002746582 -4.73199987411499,-41.9370002746582 C-4.73199987411499,-41.9370002746582 0.3319999873638153,-50.500999450683594 0.3319999873638153,-50.500999450683594 C0.3319999873638153,-50.500999450683594 47.698001861572266,-130.61399841308594 47.698001861572266,-130.61399841308594" />
                    </g>
                </g>
                <g class="primary design"
                    transform="matrix(1,-0.00014247093349695206,0.00014247093349695206,1,229.1580047607422,260.41357421875)"
                    opacity="1" style="display: block;">
                    <g opacity="1" transform="matrix(1,0,0,1,0,0)">
                        <path stroke-linecap="round" stroke-linejoin="round" fill-opacity="0" class="primary"
                            stroke="white" stroke-opacity="1" stroke-width="31.3"
                            d=" M41.58300018310547,-23.91699981689453 C41.58300018310547,-23.91699981689453 60.33300018310547,-18.417999267578125 65.79499816894531,-14.623000144958496 C65.79499816894531,-37.6349983215332 41.83300018310547,-60.917999267578125 15.628000259399414,-57.290000915527344 C15.628000259399414,-57.290000915527344 6.083000183105469,-54.66699981689453 6.083000183105469,-54.66699981689453" />
                    </g>
                </g>
                <g class="primary design"
                    transform="matrix(0.4061056673526764,-0.9138261079788208,0.9138261079788208,0.4061056673526764,194.46665954589844,230.88812255859375)"
                    opacity="1" style="display: block;">
                    <g opacity="1" transform="matrix(1,0,0,1,0,0)">
                        <path stroke-linecap="round" stroke-linejoin="round" fill-opacity="0" class="primary"
                            stroke="white" stroke-opacity="1" stroke-width="42"
                            d=" M-61.45164489746094,50.3179817199707 C-61.45164489746094,50.3179817199707 -108.7596664428711,109.17822265625 -108.7596664428711,109.17822265625 C-108.7596664428711,109.17822265625 -165.36209106445312,134.98184204101562 -165.36209106445312,134.98184204101562" />
                    </g>
                </g>
                <g class="primary design"
                    transform="matrix(0.15643446147441864,0.9876883625984192,-0.9876883625984192,0.15643446147441864,246.175048828125,328.8869323730469)"
                    opacity="1" style="display: block;">
                    <g opacity="1" transform="matrix(1,0,0,1,0,0)">
                        <path stroke-linecap="round" stroke-linejoin="round" fill-opacity="0" class="primary"
                            stroke="white" stroke-opacity="1" stroke-width="42"
                            d=" M-43.623069763183594,52.79224395751953 C-43.623069763183594,52.79224395751953 9.007561683654785,102.6236801147461 9.007561683654785,102.6236801147461 C9.007561683654785,102.6236801147461 19.737211227416992,168.15377807617188 19.737211227416992,168.15377807617188" />
                    </g>
                </g>
            </g>
            <g mask="url(#__lottie_element_191_2)" style="display: none;">
                <g clip-path="url(#__lottie_element_188)" transform="matrix(1,0,0,1,366,0)" opacity="1">
                    <g class="primary design"
                        transform="matrix(0.9975520968437195,-0.0699276402592659,0.0699276402592659,0.9975520968437195,-13.359832763671875,19.319183349609375)"
                        opacity="1" style="display: block;">
                        <g opacity="1" transform="matrix(1,0,0,1,299.4830017089844,148.27499389648438)">
                            <g opacity="1" transform="matrix(1,0,0,1,0,0)">
                                <path class="primary" fill="white" fill-opacity="1"
                                    d=" M35.09299850463867,3.569000005722046 C35.09299850463867,3.569000005722046 20.077999114990234,29.469999313354492 20.077999114990234,29.469999313354492 C17.261999130249023,34.3489990234375 12.194000244140625,36.97700119018555 6.939000129699707,36.97700119018555 C4.499000072479248,36.97700119018555 1.871000051498413,36.415000915527344 -0.5690000057220459,34.91299819946289 C-0.5690000057220459,34.91299819946289 -13.520000457763672,27.405000686645508 -13.520000457763672,27.405000686645508 C-27.97100067138672,19.14699935913086 -32.85100173950195,0.753000020980835 -24.593000411987305,-13.51200008392334 C-24.593000411987305,-13.51200008392334 -17.086000442504883,-26.461999893188477 -17.086000442504883,-26.461999893188477 C-11.454000473022461,-36.22100067138672 -1.3200000524520874,-41.47700119018555 9.003000259399414,-41.47700119018555 C14.071000099182129,-41.47700119018555 19.326000213623047,-40.35100173950195 24.01799964904785,-37.53499984741211 C38.470001220703125,-29.277000427246094 43.35100173950195,-10.883000373840332 35.09299850463867,3.569000005722046z" />
                            </g>
                        </g>
                    </g>
                    <g class="primary design"
                        transform="matrix(-0.13699917495250702,-0.9905712008476257,0.9905712008476257,-0.13699917495250702,342.6877746582031,254.08822631835938)"
                        opacity="1" style="display: block;">
                        <g opacity="1" transform="matrix(1,0,0,1,0,0)">
                            <path stroke-linecap="round" stroke-linejoin="round" fill-opacity="0" class="primary"
                                stroke="white" stroke-opacity="1" stroke-width="42"
                                d=" M19.90131378173828,-52.13398361206055 C19.90131378173828,-52.13398361206055 -51.60829162597656,-58.33037567138672 -51.60829162597656,-58.33037567138672 C-51.60829162597656,-58.33037567138672 -56.34346008300781,-14.161337852478027 -56.34346008300781,-14.161337852478027" />
                        </g>
                    </g>
                    <g class="primary design"
                        transform="matrix(-0.025447729974985123,0.9996761679649353,-0.9996761679649353,-0.025447729974985123,225.19769287109375,146.4210205078125)"
                        opacity="1" style="display: block;">
                        <g opacity="1" transform="matrix(1,0,0,1,0,0)">
                            <path stroke-linecap="round" stroke-linejoin="round" fill-opacity="0" class="primary"
                                stroke="white" stroke-opacity="1" stroke-width="42"
                                d=" M106.81597900390625,98.98323822021484 C106.81597900390625,98.98323822021484 62.57010269165039,55.78245544433594 62.57010269165039,55.78245544433594 C62.57010269165039,55.78245544433594 62.174835205078125,-19.319021224975586 62.174835205078125,-19.319021224975586" />
                        </g>
                    </g>
                    <g class="primary design" style="display: none;">
                        <g>
                            <path class="primary" />
                        </g>
                    </g>
                    <g class="primary design"
                        transform="matrix(0.9999877214431763,-0.004955596290528774,0.004955596290528774,0.9999877214431763,174.03604125976562,327.87017822265625)"
                        opacity="1" style="display: block;">
                        <g opacity="1" transform="matrix(1,0,0,1,0,0)">
                            <path class="primary" fill="white" fill-opacity="1"
                                d=" M112.96700286865234,-98.552001953125 C112.96700286865234,-98.552001953125 67.66100311279297,-20.405000686645508 67.66100311279297,-20.405000686645508 C67.66100311279297,-20.405000686645508 62.23500061035156,-11.04699993133545 62.23500061035156,-11.04699993133545 C62.23500061035156,-11.04699993133545 45.98500061035156,2.0329999923706055 19.110000610351562,-10.84000015258789 C-6.455999851226807,-23.086000442504883 -4.73199987411499,-41.9370002746582 -4.73199987411499,-41.9370002746582 C-4.73199987411499,-41.9370002746582 0.3319999873638153,-50.500999450683594 0.3319999873638153,-50.500999450683594 C0.3319999873638153,-50.500999450683594 47.698001861572266,-130.61399841308594 47.698001861572266,-130.61399841308594" />
                        </g>
                    </g>
                    <g class="primary design"
                        transform="matrix(0.9999877214431763,-0.004955596290528774,0.004955596290528774,0.9999877214431763,228.85385131835938,260.2976989746094)"
                        opacity="1" style="display: block;">
                        <g opacity="1" transform="matrix(1,0,0,1,0,0)">
                            <path stroke-linecap="round" stroke-linejoin="round" fill-opacity="0" class="primary"
                                stroke="white" stroke-opacity="1" stroke-width="42"
                                d=" M41.58300018310547,-23.91699981689453 C41.58300018310547,-23.91699981689453 58.77727127075195,-20.286699295043945 64.23927307128906,-16.49169921875 C64.23927307128906,-39.503700256347656 41.832000732421875,-57.290000915527344 18.81999969482422,-57.290000915527344 C18.81999969482422,-57.290000915527344 4.886000156402588,-56.462501525878906 4.886000156402588,-56.462501525878906" />
                        </g>
                    </g>
                    <g class="primary design"
                        transform="matrix(0.314953476190567,-0.9491071105003357,0.9491071105003357,0.314953476190567,190.490478515625,231.9409942626953)"
                        opacity="1" style="display: block;">
                        <g opacity="1" transform="matrix(1,0,0,1,0,0)">
                            <path stroke-linecap="round" stroke-linejoin="round" fill-opacity="0" class="primary"
                                stroke="white" stroke-opacity="1" stroke-width="42"
                                d=" M-61.92656326293945,46.330257415771484 C-61.92656326293945,46.330257415771484 -106.81550598144531,107.28407287597656 -106.81550598144531,107.28407287597656 C-106.81550598144531,107.28407287597656 -164.2426300048828,141.53988647460938 -164.2426300048828,141.53988647460938" />
                        </g>
                    </g>
                    <g class="primary design"
                        transform="matrix(0.15643446147441864,0.9876883625984192,-0.9876883625984192,0.15643446147441864,246.175048828125,328.8869323730469)"
                        opacity="1" style="display: block;">
                        <g opacity="1" transform="matrix(1,0,0,1,0,0)">
                            <path stroke-linecap="round" stroke-linejoin="round" fill-opacity="0" class="primary"
                                stroke="white" stroke-opacity="1" stroke-width="42"
                                d=" M-45.71622848510742,50.72895050048828 C-45.71622848510742,50.72895050048828 6.937047004699707,103.1441650390625 6.937047004699707,103.1441650390625 C6.937047004699707,103.1441650390625 8.497658729553223,171.15353393554688 8.497658729553223,171.15353393554688" />
                        </g>
                    </g>
                </g>
            </g>
            <g clip-path="url(#__lottie_element_124)" transform="matrix(1,0,0,1,-12.399993896484375,0)" opacity="1"
                style="display: none;">
                <g class="primary design"
                    transform="matrix(0.9994920492172241,-0.031869541853666306,0.031869541853666306,0.9994920492172241,-6.123382568359375,8.75726318359375)"
                    opacity="1" style="display: block;">
                    <g opacity="1" transform="matrix(1,0,0,1,299.4830017089844,148.27499389648438)">
                        <g opacity="1" transform="matrix(1,0,0,1,0,0)">
                            <path class="primary" fill="white" fill-opacity="1"
                                d=" M35.09299850463867,3.569000005722046 C35.09299850463867,3.569000005722046 20.077999114990234,29.469999313354492 20.077999114990234,29.469999313354492 C17.261999130249023,34.3489990234375 12.194000244140625,36.97700119018555 6.939000129699707,36.97700119018555 C4.499000072479248,36.97700119018555 1.871000051498413,36.415000915527344 -0.5690000057220459,34.91299819946289 C-0.5690000057220459,34.91299819946289 -13.520000457763672,27.405000686645508 -13.520000457763672,27.405000686645508 C-27.97100067138672,19.14699935913086 -32.85100173950195,0.753000020980835 -24.593000411987305,-13.51200008392334 C-24.593000411987305,-13.51200008392334 -17.086000442504883,-26.461999893188477 -17.086000442504883,-26.461999893188477 C-11.454000473022461,-36.22100067138672 -1.3200000524520874,-41.47700119018555 9.003000259399414,-41.47700119018555 C14.071000099182129,-41.47700119018555 19.326000213623047,-40.35100173950195 24.01799964904785,-37.53499984741211 C38.470001220703125,-29.277000427246094 43.35100173950195,-10.883000373840332 35.09299850463867,3.569000005722046z" />
                        </g>
                    </g>
                </g>
                <g class="primary design"
                    transform="matrix(-0.11307960003614426,-0.9935859441757202,0.9935859441757202,-0.11307960003614426,342.77093505859375,255.797607421875)"
                    opacity="1" style="display: block;">
                    <g opacity="1" transform="matrix(1,0,0,1,0,0)">
                        <path stroke-linecap="round" stroke-linejoin="round" fill-opacity="0" class="primary"
                            stroke="white" stroke-opacity="1" stroke-width="42"
                            d=" M19.409683227539062,-51.47003936767578 C19.409683227539062,-51.47003936767578 -51.02220153808594,-57.72142028808594 -51.02220153808594,-57.72142028808594 C-51.02220153808594,-57.72142028808594 -55.6325569152832,-14.70251178741455 -55.6325569152832,-14.70251178741455" />
                    </g>
                </g>
                <g class="primary design"
                    transform="matrix(-0.019615966826677322,0.999807596206665,-0.999807596206665,-0.019615966826677322,224.75547790527344,146.15724182128906)"
                    opacity="1" style="display: block;">
                    <g opacity="1" transform="matrix(1,0,0,1,0,0)">
                        <path stroke-linecap="round" stroke-linejoin="round" fill-opacity="0" class="primary"
                            stroke="white" stroke-opacity="1" stroke-width="42"
                            d=" M105.86307525634766,97.87802124023438 C105.86307525634766,97.87802124023438 62.70072937011719,55.375526428222656 62.70072937011719,55.375526428222656 C62.70072937011719,55.375526428222656 62.230960845947266,-18.346725463867188 62.230960845947266,-18.346725463867188" />
                    </g>
                </g>
                <g class="primary design" style="display: none;">
                    <g>
                        <path class="primary" />
                    </g>
                </g>
                <g class="primary design"
                    transform="matrix(0.9999992251396179,-0.0012616668827831745,0.0012616668827831745,0.9999992251396179,174.02027893066406,327.756103515625)"
                    opacity="1" style="display: block;">
                    <g opacity="1" transform="matrix(1,0,0,1,0,0)">
                        <path class="primary" fill="white" fill-opacity="1"
                            d=" M112.96700286865234,-98.552001953125 C112.96700286865234,-98.552001953125 67.66100311279297,-20.405000686645508 67.66100311279297,-20.405000686645508 C67.66100311279297,-20.405000686645508 62.23500061035156,-11.04699993133545 62.23500061035156,-11.04699993133545 C62.23500061035156,-11.04699993133545 45.98500061035156,2.0329999923706055 19.110000610351562,-10.84000015258789 C-6.455999851226807,-23.086000442504883 -4.73199987411499,-41.9370002746582 -4.73199987411499,-41.9370002746582 C-4.73199987411499,-41.9370002746582 0.3319999873638153,-50.500999450683594 0.3319999873638153,-50.500999450683594 C0.3319999873638153,-50.500999450683594 47.698001861572266,-130.61399841308594 47.698001861572266,-130.61399841308594" />
                    </g>
                </g>
                <g class="primary design"
                    transform="matrix(0.9999992251396179,-0.0012616668827831745,0.0012616668827831745,0.9999992251396179,229.08734130859375,260.3865661621094)"
                    opacity="1" style="display: block;">
                    <g opacity="1" transform="matrix(1,0,0,1,0,0)">
                        <path stroke-linecap="round" stroke-linejoin="round" fill-opacity="0" class="primary"
                            stroke="white" stroke-opacity="1" stroke-width="42"
                            d=" M41.58300018310547,-23.91699981689453 C41.58300018310547,-23.91699981689453 59.43659973144531,-20.35300064086914 64.89859771728516,-16.558000564575195 C64.89859771728516,-39.56999969482422 42.2400016784668,-57.290000915527344 19.22800064086914,-57.290000915527344 C19.22800064086914,-57.290000915527344 4.732999801635742,-56.69200134277344 4.732999801635742,-56.69200134277344" />
                    </g>
                </g>
                <g class="primary design"
                    transform="matrix(0.36410367488861084,-0.9313584566116333,0.9313584566116333,0.36410367488861084,192.59524536132812,231.28802490234375)"
                    opacity="1" style="display: block;">
                    <g opacity="1" transform="matrix(1,0,0,1,0,0)">
                        <path stroke-linecap="round" stroke-linejoin="round" fill-opacity="0" class="primary"
                            stroke="white" stroke-opacity="1" stroke-width="42"
                            d=" M-62.00959014892578,49.34046936035156 C-62.00959014892578,49.34046936035156 -108.01736450195312,107.9310073852539 -108.01736450195312,107.9310073852539 C-108.01736450195312,107.9310073852539 -165.24697875976562,137.778076171875 -165.24697875976562,137.778076171875" />
                    </g>
                </g>
                <g class="primary design"
                    transform="matrix(0.15643446147441864,0.9876883625984192,-0.9876883625984192,0.15643446147441864,246.175048828125,328.8869323730469)"
                    opacity="1" style="display: block;">
                    <g opacity="1" transform="matrix(1,0,0,1,0,0)">
                        <path stroke-linecap="round" stroke-linejoin="round" fill-opacity="0" class="primary"
                            stroke="white" stroke-opacity="1" stroke-width="42"
                            d=" M-46.676212310791016,49.612300872802734 C-46.676212310791016,49.612300872802734 7.821763515472412,102.560791015625 7.821763515472412,102.560791015625 C7.821763515472412,102.560791015625 14.546669960021973,169.28663635253906 14.546669960021973,169.28663635253906" />
                    </g>
                </g>
            </g>
            <g mask="url(#__lottie_element_131_2)" style="display: none;">
                <g clip-path="url(#__lottie_element_128)" transform="matrix(1,0,0,1,353.60284423828125,0)" opacity="1">
                    <g class="primary design" transform="matrix(1,0,0,1,0,0.000030517578125)" opacity="1"
                        style="display: block;">
                        <g opacity="1" transform="matrix(1,0,0,1,299.4830017089844,148.27499389648438)">
                            <g opacity="1" transform="matrix(1,0,0,1,0,0)">
                                <path class="primary" fill="white" fill-opacity="1"
                                    d=" M35.09299850463867,3.569000005722046 C35.09299850463867,3.569000005722046 20.077999114990234,29.469999313354492 20.077999114990234,29.469999313354492 C17.261999130249023,34.3489990234375 12.194000244140625,36.97700119018555 6.939000129699707,36.97700119018555 C4.499000072479248,36.97700119018555 1.871000051498413,36.415000915527344 -0.5690000057220459,34.91299819946289 C-0.5690000057220459,34.91299819946289 -13.520000457763672,27.405000686645508 -13.520000457763672,27.405000686645508 C-27.97100067138672,19.14699935913086 -32.85100173950195,0.753000020980835 -24.593000411987305,-13.51200008392334 C-24.593000411987305,-13.51200008392334 -17.086000442504883,-26.461999893188477 -17.086000442504883,-26.461999893188477 C-11.454000473022461,-36.22100067138672 -1.3200000524520874,-41.47700119018555 9.003000259399414,-41.47700119018555 C14.071000099182129,-41.47700119018555 19.326000213623047,-40.35100173950195 24.01799964904785,-37.53499984741211 C38.470001220703125,-29.277000427246094 43.35100173950195,-10.883000373840332 35.09299850463867,3.569000005722046z" />
                            </g>
                        </g>
                    </g>
                    <g class="primary design"
                        transform="matrix(-0.10452846437692642,-0.9945219159126282,0.9945219159126282,-0.10452846437692642,342.7877197265625,256.4019775390625)"
                        opacity="1" style="display: block;">
                        <g opacity="1" transform="matrix(1,0,0,1,0,0)">
                            <path stroke-linecap="round" stroke-linejoin="round" fill-opacity="0" class="primary"
                                stroke="white" stroke-opacity="1" stroke-width="42"
                                d=" M18.975000381469727,-50.882999420166016 C18.975000381469727,-50.882999420166016 -50.50400161743164,-57.18299865722656 -50.50400161743164,-57.18299865722656 C-50.50400161743164,-57.18299865722656 -55.00400161743164,-15.180999755859375 -55.00400161743164,-15.180999755859375" />
                        </g>
                    </g>
                    <g class="primary design"
                        transform="matrix(-0.017452405765652657,0.9998477101325989,-0.9998477101325989,-0.017452405765652657,224.5823211669922,146.05807495117188)"
                        opacity="1" style="display: block;">
                        <g opacity="1" transform="matrix(1,0,0,1,0,0)">
                            <path stroke-linecap="round" stroke-linejoin="round" fill-opacity="0" class="primary"
                                stroke="white" stroke-opacity="1" stroke-width="42"
                                d=" M105.43800354003906,97.38500213623047 C105.43800354003906,97.38500213623047 62.75899887084961,55.194000244140625 62.75899887084961,55.194000244140625 C62.75899887084961,55.194000244140625 62.25600051879883,-17.913000106811523 62.25600051879883,-17.913000106811523" />
                        </g>
                    </g>
                    <g class="primary design" style="display: none;">
                        <g>
                            <path class="primary" />
                        </g>
                    </g>
                    <g class="primary design" transform="matrix(1,0,0,1,174.01499938964844,327.7170104980469)"
                        opacity="1" style="display: block;">
                        <g opacity="1" transform="matrix(1,0,0,1,0,0)">
                            <path class="primary" fill="white" fill-opacity="1"
                                d=" M112.96700286865234,-98.552001953125 C112.96700286865234,-98.552001953125 67.66100311279297,-20.405000686645508 67.66100311279297,-20.405000686645508 C67.66100311279297,-20.405000686645508 62.23500061035156,-11.04699993133545 62.23500061035156,-11.04699993133545 C62.23500061035156,-11.04699993133545 45.98500061035156,2.0329999923706055 19.110000610351562,-10.84000015258789 C-6.455999851226807,-23.086000442504883 -4.73199987411499,-41.9370002746582 -4.73199987411499,-41.9370002746582 C-4.73199987411499,-41.9370002746582 0.3319999873638153,-50.500999450683594 0.3319999873638153,-50.500999450683594 C0.3319999873638153,-50.500999450683594 47.698001861572266,-130.61399841308594 47.698001861572266,-130.61399841308594" />
                        </g>
                    </g>
                    <g class="primary design" transform="matrix(1,0,0,1,229.1669921875,260.4169921875)" opacity="1"
                        style="display: block;">
                        <g opacity="1" transform="matrix(1,0,0,1,0,0)">
                            <path stroke-linecap="round" stroke-linejoin="round" fill-opacity="0" class="primary"
                                stroke="white" stroke-opacity="1" stroke-width="42"
                                d=" M41.58300018310547,-23.91699981689453 C41.58300018310547,-23.91699981689453 60.08300018310547,-20.417999267578125 65.54499816894531,-16.62299919128418 C65.54499816894531,-39.6349983215332 42.63999938964844,-57.290000915527344 19.628000259399414,-57.290000915527344 C19.628000259399414,-57.290000915527344 4.583000183105469,-56.91699981689453 4.583000183105469,-56.91699981689453" />
                        </g>
                    </g>
                    <g class="primary design"
                        transform="matrix(0.4067366421222687,-0.9135454297065735,0.9135454297065735,0.4067366421222687,194.4952850341797,230.88328552246094)"
                        opacity="1" style="display: block;">
                        <g opacity="1" transform="matrix(1,0,0,1,0,0)">
                            <path stroke-linecap="round" stroke-linejoin="round" fill-opacity="0" class="primary"
                                stroke="white" stroke-opacity="1" stroke-width="42"
                                d=" M-62.08300018310547,52.00199890136719 C-62.08300018310547,52.00199890136719 -109.08000183105469,108.50299835205078 -109.08000183105469,108.50299835205078 C-109.08000183105469,108.50299835205078 -166.13499450683594,134.45199584960938 -166.13499450683594,134.45199584960938" />
                        </g>
                    </g>
                    <g class="primary design"
                        transform="matrix(0.1564379632472992,0.9876877665519714,-0.9876877665519714,0.1564379632472992,246.17515563964844,328.8866882324219)"
                        opacity="1" style="display: block;">
                        <g opacity="1" transform="matrix(1,0,0,1,0,0)">
                            <path stroke-linecap="round" stroke-linejoin="round" fill-opacity="0" class="primary"
                                stroke="white" stroke-opacity="1" stroke-width="42"
                                d=" M-47.525001525878906,48.625 C-47.525001525878906,48.625 8.604000091552734,102.04499816894531 8.604000091552734,102.04499816894531 C8.604000091552734,102.04499816894531 19.895000457763672,167.63600158691406 19.895000457763672,167.63600158691406" />
                        </g>
                    </g>
                </g>
            </g>
            <g class="primary design" transform="matrix(1,0,0,1,0,0)" opacity="1" style="display: block;">
                <g opacity="1" transform="matrix(1,0,0,1,291.7130126953125,250)">
                    <path class="primary" fill="white" fill-opacity="1"
                        d=" M84.375,208.33299255371094 C84.375,208.33299255371094 41.66699981689453,208.33299255371094 41.66699981689453,208.33299255371094 C30.208999633789062,208.33299255371094 20.83300018310547,198.95799255371094 20.83300018310547,187.5 C20.83300018310547,176.04200744628906 30.208999633789062,166.66700744628906 41.66699981689453,166.66700744628906 C41.66699981689453,166.66700744628906 84.375,166.66700744628906 84.375,166.66700744628906 C84.375,166.66700744628906 83.33300018310547,-167.29200744628906 83.33300018310547,-167.29200744628906 C83.33300018310547,-167.29200744628906 -84.375,-166.66700744628906 -84.375,-166.66700744628906 C-84.375,-166.66700744628906 -83.33300018310547,-125 -83.33300018310547,-125 C-83.33300018310547,-113.54199981689453 -92.70899963378906,-104.16699981689453 -104.16699981689453,-104.16699981689453 C-115.625,-104.16699981689453 -125,-113.54199981689453 -125,-125 C-125,-125 -125,-167.29200744628906 -125,-167.29200744628906 C-125,-189.79200744628906 -106.66699981689453,-208.33299255371094 -84.375,-208.33299255371094 C-84.375,-208.33299255371094 84.375,-208.33299255371094 84.375,-208.33299255371094 C106.66699981689453,-208.33299255371094 125,-189.79200744628906 125,-167.29200744628906 C125,-167.29200744628906 125,167.08299255371094 125,167.08299255371094 C125,190 106.66699981689453,208.33299255371094 84.375,208.33299255371094z" />
                </g>
                <g opacity="1" transform="matrix(1,0,0,1,0,0)">
                    <g opacity="1" transform="matrix(1,0,0,1,304.7909851074219,145.83299255371094)">
                        <g opacity="1" transform="matrix(1,0,0,1,0,0)">
                            <path class="primary" fill="white" fill-opacity="1"
                                d=" M29.83799934387207,5.833000183105469 C29.83799934387207,5.833000183105469 14.838000297546387,31.66699981689453 14.838000297546387,31.66699981689453 C11.920999526977539,36.45899963378906 6.921000003814697,39.16699981689453 1.7130000591278076,39.16699981689453 C-0.7870000004768372,39.16699981689453 -3.2869999408721924,38.54100036621094 -5.7870001792907715,37.08300018310547 C-5.7870001792907715,37.08300018310547 -18.70400047302246,29.58300018310547 -18.70400047302246,29.58300018310547 C-33.07899856567383,21.25 -38.077999114990234,2.9170000553131104 -29.7450008392334,-11.25 C-29.7450008392334,-11.25 -22.2450008392334,-24.16699981689453 -22.2450008392334,-24.16699981689453 C-16.6200008392334,-33.95899963378906 -6.4120001792907715,-39.16699981689453 3.7960000038146973,-39.16699981689453 C8.795999526977539,-39.16699981689453 14.213000297546387,-38.125 18.79599952697754,-35.20800018310547 C33.17100143432617,-27.08300018310547 37.9630012512207,-8.541999816894531 29.83799934387207,5.833000183105469z" />
                        </g>
                    </g>
                </g>
                <g opacity="1" transform="matrix(1,0,0,1,208.38299560546875,322.9169921875)">
                    <path class="primary" fill="white" fill-opacity="1"
                        d=" M145.8300018310547,-10.416999816894531 C145.8300018310547,1.0410000085830688 136.4550018310547,10.416999816894531 124.99700164794922,10.416999816894531 C124.99700164794922,10.416999816894531 82.28800201416016,10.416999816894531 82.28800201416016,10.416999816894531 C70.83000183105469,10.416999816894531 61.45500183105469,1.0410000085830688 61.45500183105469,-10.416999816894531 C61.45500183105469,-10.416999816894531 61.45500183105469,-65 61.45500183105469,-65 C61.45500183105469,-65 30.829999923706055,-16.25 30.829999923706055,-16.25 C30.829999923706055,-16.25 60.20500183105469,42.70800018310547 60.20500183105469,42.70800018310547 C61.66299819946289,45.625 62.49700164794922,48.75 62.49700164794922,52.08300018310547 C62.49700164794922,52.08300018310547 62.49700164794922,114.58300018310547 62.49700164794922,114.58300018310547 C62.49700164794922,126.04100036621094 53.12099838256836,135.41700744628906 41.66299819946289,135.41700744628906 C30.204999923706055,135.41700744628906 20.829999923706055,126.04100036621094 20.829999923706055,114.58300018310547 C20.829999923706055,114.58300018310547 20.829999923706055,57.08300018310547 20.829999923706055,57.08300018310547 C20.829999923706055,57.08300018310547 -11.253000259399414,-7.291999816894531 -11.253000259399414,-7.291999816894531 C-11.253000259399414,-7.291999816894531 -45.21200180053711,42.91699981689453 -45.21200180053711,42.91699981689453 C-47.91999816894531,46.66699981689453 -51.66999816894531,49.58399963378906 -55.83700180053711,51.04199981689453 C-55.83700180053711,51.04199981689453 -118.33699798583984,71.875 -118.33699798583984,71.875 C-120.62899780273438,72.5 -122.91999816894531,72.91699981689453 -125.00299835205078,72.91699981689453 C-133.7530059814453,72.91699981689453 -141.8780059814453,67.5 -144.7949981689453,58.75 C-148.33700561523438,47.70800018310547 -142.5030059814453,36.04199981689453 -131.6699981689453,32.29199981689453 C-131.6699981689453,32.29199981689453 -75.83699798583984,13.75 -75.83699798583984,13.75 C-75.83699798583984,13.75 -2.9200000762939453,-93.75 -2.9200000762939453,-93.75 C-2.9200000762939453,-93.75 -33.12799835205078,-93.75 -33.12799835205078,-93.75 C-33.12799835205078,-93.75 -68.54499816894531,-58.125 -68.54499816894531,-58.125 C-76.66999816894531,-50 -90.00299835205078,-50 -98.12799835205078,-58.125 C-106.25299835205078,-66.25 -106.25299835205078,-79.58300018310547 -98.12799835205078,-87.70800018310547 C-98.12799835205078,-87.70800018310547 -56.46200180053711,-129.375 -56.46200180053711,-129.375 C-52.50400161743164,-133.125 -47.29499816894531,-135.41700744628906 -41.66999816894531,-135.41700744628906 C-41.66999816894531,-135.41700744628906 42.70500183105469,-135.41700744628906 42.70500183105469,-135.41700744628906 C76.03800201416016,-135.41700744628906 103.12200164794922,-107.29199981689453 103.12200164794922,-72.91699981689453 C103.12200164794922,-72.91699981689453 103.12200164794922,-31.25 103.12200164794922,-31.25 C103.12200164794922,-31.25 124.99700164794922,-31.25 124.99700164794922,-31.25 C136.4550018310547,-31.25 145.8300018310547,-21.875 145.8300018310547,-10.416999816894531z" />
                </g>
            </g>
            <g class="primary design" transform="matrix(1,0,0,1,0,0)" opacity="1" style="display: none;">
                <g opacity="1" transform="matrix(1,0,0,1,291.7130126953125,250)">
                    <path class="primary" fill="white" fill-opacity="1"
                        d=" M84.375,208.33299255371094 C84.375,208.33299255371094 41.66699981689453,208.33299255371094 41.66699981689453,208.33299255371094 C30.208999633789062,208.33299255371094 20.83300018310547,198.95799255371094 20.83300018310547,187.5 C20.83300018310547,176.04200744628906 30.208999633789062,166.66700744628906 41.66699981689453,166.66700744628906 C41.66699981689453,166.66700744628906 84.375,166.66700744628906 84.375,166.66700744628906 C84.375,166.66700744628906 83.33300018310547,-167.29200744628906 83.33300018310547,-167.29200744628906 C83.33300018310547,-167.29200744628906 -84.375,-166.66700744628906 -84.375,-166.66700744628906 C-84.375,-166.66700744628906 -83.33300018310547,-125 -83.33300018310547,-125 C-83.33300018310547,-113.54199981689453 -92.70899963378906,-104.16699981689453 -104.16699981689453,-104.16699981689453 C-115.625,-104.16699981689453 -125,-113.54199981689453 -125,-125 C-125,-125 -125,-167.29200744628906 -125,-167.29200744628906 C-125,-189.79200744628906 -106.66699981689453,-208.33299255371094 -84.375,-208.33299255371094 C-84.375,-208.33299255371094 84.375,-208.33299255371094 84.375,-208.33299255371094 C106.66699981689453,-208.33299255371094 125,-189.79200744628906 125,-167.29200744628906 C125,-167.29200744628906 125,167.08299255371094 125,167.08299255371094 C125,190 106.66699981689453,208.33299255371094 84.375,208.33299255371094z" />
                </g>
                <g opacity="1" transform="matrix(1,0,0,1,0,0)">
                    <g opacity="1" transform="matrix(1,0,0,1,304.7909851074219,145.83299255371094)">
                        <g opacity="1" transform="matrix(1,0,0,1,0,0)">
                            <path class="primary" fill="white" fill-opacity="1"
                                d=" M29.83799934387207,5.833000183105469 C29.83799934387207,5.833000183105469 14.838000297546387,31.66699981689453 14.838000297546387,31.66699981689453 C11.920999526977539,36.45899963378906 6.921000003814697,39.16699981689453 1.7130000591278076,39.16699981689453 C-0.7870000004768372,39.16699981689453 -3.2869999408721924,38.54100036621094 -5.7870001792907715,37.08300018310547 C-5.7870001792907715,37.08300018310547 -18.70400047302246,29.58300018310547 -18.70400047302246,29.58300018310547 C-33.07899856567383,21.25 -38.077999114990234,2.9170000553131104 -29.7450008392334,-11.25 C-29.7450008392334,-11.25 -22.2450008392334,-24.16699981689453 -22.2450008392334,-24.16699981689453 C-16.6200008392334,-33.95899963378906 -6.4120001792907715,-39.16699981689453 3.7960000038146973,-39.16699981689453 C8.795999526977539,-39.16699981689453 14.213000297546387,-38.125 18.79599952697754,-35.20800018310547 C33.17100143432617,-27.08300018310547 37.9630012512207,-8.541999816894531 29.83799934387207,5.833000183105469z" />
                        </g>
                    </g>
                </g>
                <g opacity="1" transform="matrix(1,0,0,1,208.38299560546875,322.9169921875)">
                    <path class="primary" fill="white" fill-opacity="1"
                        d=" M145.8300018310547,-10.416999816894531 C145.8300018310547,1.0410000085830688 136.4550018310547,10.416999816894531 124.99700164794922,10.416999816894531 C124.99700164794922,10.416999816894531 82.28800201416016,10.416999816894531 82.28800201416016,10.416999816894531 C70.83000183105469,10.416999816894531 61.45500183105469,1.0410000085830688 61.45500183105469,-10.416999816894531 C61.45500183105469,-10.416999816894531 61.45500183105469,-65 61.45500183105469,-65 C61.45500183105469,-65 30.829999923706055,-16.25 30.829999923706055,-16.25 C30.829999923706055,-16.25 60.20500183105469,42.70800018310547 60.20500183105469,42.70800018310547 C61.66299819946289,45.625 62.49700164794922,48.75 62.49700164794922,52.08300018310547 C62.49700164794922,52.08300018310547 62.49700164794922,114.58300018310547 62.49700164794922,114.58300018310547 C62.49700164794922,126.04100036621094 53.12099838256836,135.41700744628906 41.66299819946289,135.41700744628906 C30.204999923706055,135.41700744628906 20.829999923706055,126.04100036621094 20.829999923706055,114.58300018310547 C20.829999923706055,114.58300018310547 20.829999923706055,57.08300018310547 20.829999923706055,57.08300018310547 C20.829999923706055,57.08300018310547 -11.253000259399414,-7.291999816894531 -11.253000259399414,-7.291999816894531 C-11.253000259399414,-7.291999816894531 -45.21200180053711,42.91699981689453 -45.21200180053711,42.91699981689453 C-47.91999816894531,46.66699981689453 -51.66999816894531,49.58399963378906 -55.83700180053711,51.04199981689453 C-55.83700180053711,51.04199981689453 -118.33699798583984,71.875 -118.33699798583984,71.875 C-120.62899780273438,72.5 -122.91999816894531,72.91699981689453 -125.00299835205078,72.91699981689453 C-133.7530059814453,72.91699981689453 -141.8780059814453,67.5 -144.7949981689453,58.75 C-148.33700561523438,47.70800018310547 -142.5030059814453,36.04199981689453 -131.6699981689453,32.29199981689453 C-131.6699981689453,32.29199981689453 -75.83699798583984,13.75 -75.83699798583984,13.75 C-75.83699798583984,13.75 -2.9200000762939453,-93.75 -2.9200000762939453,-93.75 C-2.9200000762939453,-93.75 -33.12799835205078,-93.75 -33.12799835205078,-93.75 C-33.12799835205078,-93.75 -68.54499816894531,-58.125 -68.54499816894531,-58.125 C-76.66999816894531,-50 -90.00299835205078,-50 -98.12799835205078,-58.125 C-106.25299835205078,-66.25 -106.25299835205078,-79.58300018310547 -98.12799835205078,-87.70800018310547 C-98.12799835205078,-87.70800018310547 -56.46200180053711,-129.375 -56.46200180053711,-129.375 C-52.50400161743164,-133.125 -47.29499816894531,-135.41700744628906 -41.66999816894531,-135.41700744628906 C-41.66999816894531,-135.41700744628906 42.70500183105469,-135.41700744628906 42.70500183105469,-135.41700744628906 C76.03800201416016,-135.41700744628906 103.12200164794922,-107.29199981689453 103.12200164794922,-72.91699981689453 C103.12200164794922,-72.91699981689453 103.12200164794922,-31.25 103.12200164794922,-31.25 C103.12200164794922,-31.25 124.99700164794922,-31.25 124.99700164794922,-31.25 C136.4550018310547,-31.25 145.8300018310547,-21.875 145.8300018310547,-10.416999816894531z" />
                </g>
            </g>
        </g>
    </g>
</svg>