<svg version="1.1" id="Layer_1" xmlns="http://www.w3.org/2000/svg" xmlns:xlink="http://www.w3.org/1999/xlink" x="0px" y="0px"
	 width="100%" viewBox="0 0 1106 1105" enable-background="new 0 0 1106 1105" xml:space="preserve">
<path fill="transparent" opacity="1.000000" stroke="none" 
	d="
M1107.000000,242.000000 
	C1107.000000,529.973145 1107.000000,817.946289 1107.000000,1105.959717 
	C738.394592,1105.959717 369.789185,1105.959717 1.091882,1105.959717 
	C1.091882,737.762329 1.091882,369.524567 1.091882,1.143420 
	C369.666626,1.143420 738.333313,1.143420 1107.000000,1.143420 
	C1107.000000,80.102661 1107.000000,159.095383 1106.533203,238.590149 
	C1054.566895,239.097412 1003.067261,239.135132 951.567871,239.037491 
	C947.987305,239.030701 945.424683,239.931198 942.827881,242.535995 
	C892.119080,293.400085 841.307983,344.162231 790.510620,394.938019 
	C789.530884,395.917267 788.465393,396.810730 786.650513,398.462952 
	C786.650513,344.856293 786.650513,292.308502 786.650513,239.530319 
	C785.035095,239.446381 783.900085,239.335876 782.765137,239.335770 
	C680.943726,239.326538 579.122314,239.308746 477.301056,239.439056 
	C475.127930,239.441833 472.417847,240.611740 470.864716,242.151489 
	C439.622589,273.124237 408.494171,304.211792 377.381622,335.315033 
	C292.531128,420.140289 207.699173,504.984100 122.853821,589.814514 
	C121.542206,591.125854 120.153435,592.360107 117.846542,594.526245 
	C117.846542,482.400696 117.846542,371.737549 117.846542,260.464722 
	C116.784485,261.373901 116.273712,261.755066 115.827660,262.201019 
	C79.294113,298.724060 42.735424,335.222229 6.338643,371.881134 
	C4.757349,373.473816 3.981205,376.546112 3.979619,378.929932 
	C3.871820,540.910950 3.882032,702.891968 3.882140,864.873047 
	C3.882142,866.461609 3.882141,868.050232 3.882141,869.638794 
	C4.476247,870.061218 5.070354,870.483704 5.664460,870.906189 
	C6.242743,869.725342 6.557204,868.280701 7.436798,867.401245 
	C100.405441,774.436646 193.429428,681.527405 286.420990,588.585693 
	C363.623016,511.425049 440.798035,434.237427 517.932007,357.008789 
	C520.206543,354.731445 522.448975,353.672333 525.745300,353.679810 
	C572.906128,353.786621 620.067200,353.753723 667.228271,353.754517 
	C668.824768,353.754547 670.421265,353.754517 672.454468,353.754517 
	C672.454468,460.881226 672.454468,567.411499 672.454468,674.861084 
	C674.324768,673.129150 675.537659,672.078674 676.669617,670.947205 
	C712.260437,635.371887 747.843750,599.788940 783.427734,564.206787 
	C890.063904,457.576111 996.698120,350.943604 1103.364014,244.342682 
	C1104.360840,243.346466 1105.778687,242.771576 1107.000000,242.000000 
z"/>
<path fill="#FEFEFE" opacity="1.000000" stroke="none" 
	d="
M1107.000000,241.625000 
	C1105.778687,242.771576 1104.360840,243.346466 1103.364014,244.342682 
	C996.698120,350.943604 890.063904,457.576111 783.427734,564.206787 
	C747.843750,599.788940 712.260437,635.371887 676.669617,670.947205 
	C675.537659,672.078674 674.324768,673.129150 672.454468,674.861084 
	C672.454468,567.411499 672.454468,460.881226 672.454468,353.754517 
	C670.421265,353.754517 668.824768,353.754547 667.228271,353.754517 
	C620.067200,353.753723 572.906128,353.786621 525.745300,353.679810 
	C522.448975,353.672333 520.206543,354.731445 517.932007,357.008789 
	C440.798035,434.237427 363.623016,511.425049 286.420990,588.585693 
	C193.429428,681.527405 100.405441,774.436646 7.436798,867.401245 
	C6.557204,868.280701 6.242743,869.725342 5.664460,870.906189 
	C5.070354,870.483704 4.476247,870.061218 3.882141,869.638794 
	C3.882141,868.050232 3.882142,866.461609 3.882140,864.873047 
	C3.882032,702.891968 3.871820,540.910950 3.979619,378.929932 
	C3.981205,376.546112 4.757349,373.473816 6.338643,371.881134 
	C42.735424,335.222229 79.294113,298.724060 115.827660,262.201019 
	C116.273712,261.755066 116.784485,261.373901 117.846542,260.464722 
	C117.846542,371.737549 117.846542,482.400696 117.846542,594.526245 
	C120.153435,592.360107 121.542206,591.125854 122.853821,589.814514 
	C207.699173,504.984100 292.531128,420.140289 377.381622,335.315033 
	C408.494171,304.211792 439.622589,273.124237 470.864716,242.151489 
	C472.417847,240.611740 475.127930,239.441833 477.301056,239.439056 
	C579.122314,239.308746 680.943726,239.326538 782.765137,239.335770 
	C783.900085,239.335876 785.035095,239.446381 786.650513,239.530319 
	C786.650513,292.308502 786.650513,344.856293 786.650513,398.462952 
	C788.465393,396.810730 789.530884,395.917267 790.510620,394.938019 
	C841.307983,344.162231 892.119080,293.400085 942.827881,242.535995 
	C945.424683,239.931198 947.987305,239.030701 951.567871,239.037491 
	C1003.067261,239.135132 1054.566895,239.097412 1106.533203,239.046097 
	C1107.000000,239.750000 1107.000000,240.500000 1107.000000,241.625000 
z"/>
</svg>